# xmcd
#
# Track frame offsets: 
#        150
#        11212
#        23037
#        35000
#        49743
#        61735
#        72277
#        84726
#        96720
#        109913
#        123972
#        134603
#
# Disc length: 1939 seconds
#
# Revision: 4
# Processed by: cddbd v1.5.2PL0 Copyright (c) Steve Scherf et al.
# Submitted via: ExactAudioCopyFreeDBPlugin 1.0
#
DISCID=ac07910c
DTITLE=Marvin Gaye - In The Groove_2016
DYEAR=1968
DGENRE=R&B
TTITLE0=You
TTITLE1=Tear It Down
TTITLE2=Chained
TTITLE3=I Heard It Thru The Grapevine
TTITLE4=At Last
TTITLE5=Some Kind Of Wonderful
TTITLE6=Loving U Is Sweeter Than Ever
TTITLE7=Change What U Can
TTITLE8=It's Love I Need
TTITLE9=Every Now And Then
TTITLE10=You're What's Happening
TTITLE11=There Goes My Baby
EXTD=YEAR: 1968
EXTT0=
EXTT1=
EXTT2=
EXTT3=
EXTT4=
EXTT5=
EXTT6=
EXTT7=
EXTT8=
EXTT9=
EXTT10=
EXTT11=
PLAYORDER=
